<?xml version="1.0" encoding="utf-8"?>
<!-- Generator: Adobe Illustrator 16.0.0, SVG Export Plug-In . SVG Version: 6.00 Build 0)  -->
<!DOCTYPE svg PUBLIC "-//W3C//DTD SVG 1.1//EN" "http://www.w3.org/Graphics/SVG/1.1/DTD/svg11.dtd">
<svg version="1.1" id="Layer_1" xmlns="http://www.w3.org/2000/svg" xmlns:xlink="http://www.w3.org/1999/xlink" x="0px" y="0px"
	 width="1000px" height="1000px" viewBox="0 0 1000 1000" enable-background="new 0 0 1000 1000" xml:space="preserve">
<g>
	<linearGradient id="SVGID_1_" gradientUnits="userSpaceOnUse" x1="249.3755" y1="496.7236" x2="749.5234" y2="496.7236">
		<stop  offset="0" style="stop-color:#385363"/>
		<stop  offset="0.2131" style="stop-color:#365061"/>
		<stop  offset="0.4467" style="stop-color:#334A59"/>
		<stop  offset="0.6901" style="stop-color:#2D404D"/>
		<stop  offset="0.9388" style="stop-color:#24333D"/>
		<stop  offset="1" style="stop-color:#212F38"/>
	</linearGradient>
	<path fill-rule="evenodd" clip-rule="evenodd" fill="url(#SVGID_1_)" d="M311.208,525.958
		c-16.645,3.725-33.628,7.095-50.162,10.797c1.705-27.229,81.635-53.884,107.364-48.14c-3.317,1.352-5.683,2.313-8.049,3.275
		c0.079,0.558,0.157,1.114,0.236,1.672c15.178,0,30.435,0.965,45.509-0.281c14.274-1.179,28.446-4.256,42.5-7.262
		c19.223-4.113,30.019-17.943,37.079-34.988c2.892-6.982,6.538-9.761,14.474-10.519c83.172-7.948,160.551-31.739,226.762-85.058
		c7.17-5.773,14.197-11.719,21.83-18.027c8.988,48.474-62.17,129.992-130.375,152.229c23.592,0,47.186,0,73.938,0
		c-20.406,16.174-41.361,26.277-62.584,35.918c-22.006,9.994-45.763,9.937-69.46,9.634c-1.572,0.1-2.146,1.271-0.274,2.563
		c8.785,5.813,17.57,11.627,28.035,18.549c-19.922,10.889-40.484,7.893-60.227,9.24c-1.695,0.05-3.227,0.425-1.836,2.487
		c5.873,7.677,10.701,16.465,17.59,23.087c20.361,19.576,45.723,29.97,72.787,36.26c18.563,4.317,37.377,7.551,56.053,11.393
		c2.033,0.417,3.898,1.65,5.842,2.507c1.15,0.504,1.51,2.598,0.09,2.95c-14.467,2.742-28.852,6.066-43.414,8.104
		c-31.98,4.479-64.045,5.179-96.109,0.322c-44.38-6.722-85.995-19.8-119.92-51.088c-9.346-8.62-19.423-16.477-28.436-25.419
		C376.287,562.11,357.5,554.5,339,550.75c-18.25-4-35.25-1.25-52.073,2.006c-15.927,4.244-24.088,11.9-28.182,26.417
		c-0.588,2.086-1.687,4.026-2.691,6.368c-15.044-19.019-3.264-45.333,21.29-49.199c8.27-1.3,16.604-2.284,24.785-4.008
		c3.349-0.706,6.366-2.985,9.536-4.55C313.917,526.667,312.625,525.625,311.208,525.958z"/>
	<linearGradient id="SVGID_2_" gradientUnits="userSpaceOnUse" x1="400.9497" y1="350.2656" x2="605.0449" y2="350.2656">
		<stop  offset="0" style="stop-color:#E24F28"/>
		<stop  offset="0.3431" style="stop-color:#D84927"/>
		<stop  offset="0.8233" style="stop-color:#C23D25"/>
		<stop  offset="1" style="stop-color:#B83724"/>
	</linearGradient>
	<path fill-rule="evenodd" clip-rule="evenodd" fill="url(#SVGID_2_)" d="M564.969,349.553c7.791-3.733,15.586-7.467,23.377-11.201
		c-6.172,24.9-13.785,48.247-31.43,65.715c-5.402,5.349-15.734,6.219-24.053,8.017c-15.023,3.246-30.363,5.102-45.286,8.713
		c-4.769,1.154-9.54,5.318-12.7,9.364c-4.262,5.456-6.982,12.121-10.34,18.28c-13.644,25.03-38.66,24.719-63.587,29.551
		c1.457-3.349,1.829-4.944,2.725-6.151c9.169-12.351,13.439-26.113,11.621-41.455c-0.985-8.313,2.177-12.989,9.451-17.602
		c44.137-27.988,88.193-56.646,119.556-99.548c18.672-25.538,34.115-53.431,51.039-80.247c2.377-3.769,4.936-7.426,9.41-10.449
		c0,12.177,0.77,24.415-0.188,36.515c-1.318,16.651-3.309,33.315-6.348,49.725c-1.1,5.921-5.117,12.062-9.471,16.451
		c-7.912,7.984-17.072,14.733-25.711,21.999C561.25,349.125,563.063,350.438,564.969,349.553z"/>
	<linearGradient id="SVGID_3_" gradientUnits="userSpaceOnUse" x1="566.1582" y1="590.7393" x2="777.3965" y2="590.7393">
		<stop  offset="0" style="stop-color:#B83724"/>
		<stop  offset="0.1943" style="stop-color:#C33D25"/>
		<stop  offset="0.6596" style="stop-color:#D84A27"/>
		<stop  offset="1" style="stop-color:#E24F28"/>
	</linearGradient>
	<path fill-rule="evenodd" clip-rule="evenodd" fill="url(#SVGID_3_)" d="M777.396,557.902
		c-39.564,73.914-136.943,85.076-211.238,35.312c36.326,5.319,72.42,13.931,109.508,7.17
		C712.66,593.638,744.822,575.491,777.396,557.902z"/>
	<linearGradient id="SVGID_4_" gradientUnits="userSpaceOnUse" x1="573.9121" y1="566.3193" x2="692.9844" y2="566.3193">
		<stop  offset="0" style="stop-color:#B83724"/>
		<stop  offset="0.5375" style="stop-color:#CE4426"/>
		<stop  offset="1" style="stop-color:#DC4C28"/>
	</linearGradient>
	<path fill-rule="evenodd" clip-rule="evenodd" fill="url(#SVGID_4_)" d="M573.912,578.988c43.363,3.003,83.979-3.73,119.072-34.246
		C689.578,582.748,629.076,599.665,573.912,578.988z"/>
</g>
</svg>
